<svg width="23" height="24" viewBox="0 0 23 24" fill="none" xmlns="http://www.w3.org/2000/svg">
<g clip-path="url(#clip0_20005153_5022)" filter="url(#filter0_d_20005153_5022)">
<path d="M5.54719 16.8035C5.15899 16.3101 4.67374 15.3094 3.82802 14.0619C3.34277 13.3765 2.15045 12.0743 1.78998 11.4026C1.53013 10.9944 1.45472 10.4974 1.58202 10.0318C1.79963 9.1465 2.64895 8.55926 3.5646 8.66095C4.27279 8.80161 4.92361 9.1448 5.43627 9.64793C5.79422 9.98127 6.12348 10.3435 6.42063 10.7309C6.64246 11.005 6.69792 11.1147 6.94747 11.43C7.19703 11.7453 7.3634 12.0606 7.23862 11.5945C7.14157 10.9091 6.9752 9.7576 6.73951 8.72949C6.55928 7.94813 6.51768 7.82476 6.35131 7.23531C6.18494 6.64586 6.08789 6.15237 5.90766 5.48067C5.7429 4.82073 5.61333 4.15268 5.51946 3.4793C5.3447 2.61802 5.47184 1.72358 5.87993 0.943301C6.36434 0.492812 7.07493 0.373912 7.68228 0.641724C8.29313 1.0877 8.74858 1.71048 8.98552 2.42377C9.34885 3.30162 9.59133 4.22373 9.70646 5.16539C9.92828 6.5362 10.3581 8.53758 10.3719 8.94882C10.3719 8.44162 10.2749 7.37239 10.3719 6.89261C10.4681 6.39243 10.8197 5.97733 11.3008 5.79596C11.7137 5.6707 12.1505 5.64254 12.5764 5.71371C13.0062 5.80256 13.3869 6.04702 13.6439 6.39912C13.9651 7.19884 14.1434 8.04765 14.1707 8.90769C14.2079 8.15455 14.3382 7.40875 14.5589 6.68699C14.7906 6.36423 15.1289 6.13152 15.5156 6.029C15.9739 5.94614 16.4436 5.94614 16.902 6.029C17.2778 6.15324 17.6066 6.38749 17.8448 6.70069C18.1384 7.4277 18.3161 8.19534 18.3716 8.97624C18.3716 9.16815 18.4687 8.44162 18.7737 7.96184C18.9322 7.49658 19.3297 7.15028 19.8164 7.05337C20.3032 6.95646 20.8053 7.12368 21.1335 7.49203C21.4618 7.86038 21.5664 8.3739 21.4079 8.83915C21.4079 9.73018 21.4079 9.68906 21.4079 10.2922C21.4079 10.8954 21.4079 11.43 21.4079 11.9372C21.3573 12.7393 21.2461 13.5366 21.0751 14.3224C20.8339 15.0175 20.498 15.677 20.0769 16.2826C19.4037 17.0228 18.8475 17.8593 18.4271 18.7638C18.3227 19.2132 18.2762 19.6737 18.2884 20.1346C18.287 20.5604 18.343 20.9845 18.4548 21.3958C17.8879 21.455 17.3163 21.455 16.7495 21.3958C16.2088 21.3135 15.5433 20.2443 15.3631 19.9153C15.2739 19.7386 15.0914 19.627 14.8917 19.627C14.692 19.627 14.5095 19.7386 14.4203 19.9153C14.1153 20.4362 13.4359 21.382 12.9646 21.4369C12.0356 21.5465 10.1224 21.4369 8.61118 21.4369C8.61118 21.4369 8.86074 20.0661 8.2923 19.5726C7.72387 19.0791 7.14157 18.5033 6.71178 18.1195L5.54719 16.8035Z" fill="white"/>
<path fill-rule="evenodd" clip-rule="evenodd" d="M21.9262 11.9687C21.9273 11.1623 21.9273 11.1623 21.9273 10.2918V8.91621C22.1043 8.30048 21.9539 7.63517 21.5231 7.15179C21.072 6.64565 20.3821 6.41588 19.7133 6.54904C19.2576 6.63976 18.8588 6.88957 18.582 7.24176C18.509 6.99345 18.4239 6.74949 18.3271 6.50967C17.9584 5.99491 17.5421 5.69836 17.0663 5.54108C16.4748 5.4289 15.9417 5.4289 15.4215 5.52294C14.901 5.65929 14.4755 5.9421 14.1755 6.33376C14.1595 6.29205 14.1432 6.25046 14.1266 6.20899C13.7322 5.64187 13.239 5.32523 12.6822 5.21015C12.1568 5.12194 11.6381 5.15539 11.1478 5.30413C10.8328 5.42233 10.562 5.60541 10.3489 5.83473C10.2977 5.55126 10.2553 5.30596 10.2193 5.08378C10.1014 4.11597 9.84713 3.14913 9.46617 2.22869C9.20835 1.44836 8.68821 0.737121 7.99059 0.227799C7.09478 -0.180353 6.16026 -0.0239852 5.5232 0.568465L5.41759 0.706791C4.95524 1.59083 4.81119 2.60421 5.00919 3.58002C5.10025 4.24031 5.23326 4.92605 5.40238 5.60347C5.48074 5.89583 5.48109 5.89726 5.64685 6.58416L5.68981 6.76082C5.74625 6.99057 5.79557 7.1802 5.85002 7.3731C5.94315 7.70101 5.97913 7.82798 6.01022 7.94186L6.02866 8.01C6.08578 8.22304 6.14196 8.45262 6.2321 8.8434C6.31474 9.20391 6.38757 9.56614 6.45747 9.95957C6.2492 9.72141 6.02652 9.49153 5.79222 9.27334C5.21707 8.70864 4.4745 8.31706 3.66648 8.15657C2.44634 8.01914 1.35573 8.77321 1.0763 9.90996C0.914423 10.5014 1.01227 11.1463 1.34946 11.676C1.50942 11.9771 1.81944 12.3907 2.37038 13.0658L2.45611 13.1707C3.09563 13.9513 3.2107 14.0916 3.31718 14.238C3.34329 14.2739 3.36889 14.3102 3.40158 14.3563C3.60224 14.6524 3.95408 15.2262 4.29337 15.7795C4.67269 16.398 5.03631 16.991 5.1554 17.1417L6.31999 18.4576C6.47229 18.5968 6.87655 18.9751 7.15394 19.2347C7.29071 19.3627 7.39663 19.4618 7.42629 19.4891C7.56064 19.613 7.68397 19.7249 7.80227 19.8299C7.83892 19.8623 7.85721 19.8785 7.87555 19.8946C7.89383 19.9106 7.91216 19.9266 7.94875 19.9585C8.03156 20.0304 8.10107 20.2103 8.13018 20.4731C8.15488 20.6961 8.1481 20.9449 8.12122 21.1836C8.11236 21.2623 8.10383 21.3188 8.09898 21.3454C8.04158 21.6607 8.28666 21.9505 8.61066 21.9505C8.98381 21.9505 9.36904 21.9565 9.98143 21.9701L10.1927 21.9748C11.8517 22.0121 12.4736 22.0121 13.0257 21.9469C13.6567 21.8735 14.3279 21.0978 14.8974 20.1445C15.3817 21.0291 16.0037 21.8021 16.6699 21.9034C17.2975 21.9696 17.9057 21.9696 18.5089 21.9066C18.8268 21.8733 19.0393 21.5671 18.9563 21.2619C18.8565 20.8947 18.8066 20.5161 18.8078 20.1359C18.7965 19.703 18.8387 19.2856 18.9333 18.8784C19.2975 18.1206 19.8248 17.3277 20.463 16.626C20.9526 15.9294 21.3098 15.2281 21.5664 14.4888C21.7593 13.6193 21.8741 12.7965 21.9262 11.9687ZM7.94759 18.5618C7.67705 18.3088 7.2044 17.8668 7.05975 17.7377L5.9501 16.4784C5.86889 16.3696 5.6049 15.9374 5.29827 15.4355C4.93373 14.8388 4.50891 14.1434 4.25936 13.7753C4.14366 13.6117 4.00091 13.4273 3.80614 13.186C3.73044 13.0922 3.67636 13.0259 3.54067 12.8604L3.26412 12.5236L3.17963 12.4203C2.67407 11.8007 2.38477 11.4147 2.24872 11.1612C2.04694 10.8416 1.99398 10.4925 2.08339 10.1655C2.24249 9.51901 2.85053 9.0986 3.50605 9.1714C4.07003 9.28537 4.6291 9.58018 5.06949 10.0124C5.41623 10.3355 5.72616 10.6765 6.00588 11.0411C6.09267 11.1487 6.14722 11.2209 6.23304 11.3398C6.38067 11.5445 6.42279 11.6015 6.53752 11.7464C6.54568 11.7567 6.56776 11.7863 6.5969 11.8253C6.67703 11.9325 6.81054 12.1113 6.85462 12.1575C6.90885 12.2257 6.90885 12.2257 7.18535 12.3377C7.77866 12.1216 7.78196 12.1167 7.79925 11.8412C7.80605 11.7329 7.78713 11.636 7.7407 11.4625C7.58227 10.3171 7.44184 9.46957 7.24604 8.61546C7.15328 8.21332 7.09444 7.97287 7.03377 7.74658L7.0141 7.67389C6.9815 7.55452 6.94393 7.42191 6.85157 7.09674C6.80066 6.91637 6.75413 6.73751 6.70026 6.5182L6.65828 6.34555C6.48981 5.64744 6.48907 5.6444 6.40966 5.34846C6.2515 4.71463 6.12536 4.06427 6.03398 3.40872C5.8836 2.66291 5.97882 1.91909 6.29897 1.26267C6.62737 0.999759 7.07979 0.938753 7.47 1.11081C7.89701 1.43749 8.28776 1.97181 8.49104 2.58378C8.84953 3.45334 9.08024 4.33072 9.18978 5.22669C9.24991 5.60063 9.32257 6.00823 9.41966 6.52781L9.46287 6.75794C9.84328 8.77588 9.84589 8.79028 9.8518 8.96555C9.87451 9.63926 10.8913 9.62251 10.8913 8.94843C10.8913 8.79994 10.8884 8.72026 10.8693 8.27474C10.8618 8.099 10.8589 8.02409 10.8556 7.92146C10.8408 7.46631 10.8481 7.1567 10.8812 6.99303C10.9446 6.66333 11.173 6.39371 11.4855 6.2759C11.7883 6.18524 12.1432 6.16236 12.4892 6.22018C12.7724 6.27911 13.0407 6.45138 13.2218 6.69952C13.4592 7.33284 13.6251 8.12293 13.6506 8.92347C13.6715 9.58161 14.6571 9.59002 14.6895 8.93233C14.7231 8.2513 14.8374 7.57663 15.03 6.92216C15.1888 6.72918 15.4054 6.58989 15.6497 6.52511C16.0051 6.4626 16.4114 6.4626 16.808 6.53428C17.0125 6.60733 17.2539 6.77928 17.4287 7.00919C17.6351 7.56855 17.8007 8.28404 17.8524 9.01188C17.849 9.0109 17.8446 9.01113 17.8446 9.01113C17.837 9.01619 17.8589 9.06497 17.9872 9.35044C18.5155 9.44109 18.6759 9.46861 18.7529 9.40195C18.7865 9.3729 18.8043 9.32595 18.8298 9.25853C18.8657 9.18623 18.8657 9.18616 18.8759 9.15543C18.8887 9.11797 18.9021 9.06793 18.9258 8.97731C18.9775 8.78348 19.0251 8.63254 19.0869 8.48436C19.1273 8.38754 19.1698 8.30345 19.2133 8.23501C19.3651 7.83433 19.6139 7.61757 19.9185 7.55692C20.2232 7.49626 20.5375 7.60093 20.7429 7.83148C20.9484 8.06204 21.0138 8.38346 20.9146 8.67467L20.8874 8.83876V11.9368C20.8395 12.6814 20.7319 13.4532 20.5663 14.2139C20.3569 14.8062 20.0424 15.4238 19.648 15.991C18.9816 16.7172 18.3964 17.5972 17.9541 18.5487C17.8057 19.1399 17.7548 19.6436 17.7682 20.1477C17.7672 20.4034 17.7862 20.6633 17.8249 20.9225C17.4842 20.9324 17.143 20.9196 16.8036 20.8842C16.635 20.8579 16.1197 20.2176 15.8197 19.6701C15.6505 19.3343 15.2879 19.1126 14.8912 19.1126C14.4944 19.1126 14.1318 19.3343 13.9546 19.6853C13.6105 20.271 13.0595 20.9078 12.9033 20.926C12.4223 20.9827 11.8078 20.9827 10.2164 20.9469L10.0046 20.9422C9.6779 20.935 9.41462 20.9299 9.18258 20.9267C9.18944 20.7375 9.18443 20.5473 9.16381 20.3612C9.10911 19.8673 8.95238 19.4616 8.63482 19.1859C8.60058 19.1561 8.58336 19.1411 8.5662 19.126C8.54883 19.1107 8.53152 19.0954 8.49669 19.0646C8.3838 18.9645 8.26532 18.857 8.13559 18.7374C8.11424 18.7177 8.04366 18.6517 7.94759 18.5618Z" fill="black"/>
<path d="M17.3035 17.5515V12.8197C17.3035 12.5365 17.0708 12.3069 16.7836 12.3069C16.4965 12.3069 16.2637 12.5365 16.2637 12.8197V17.5515C16.2637 17.8347 16.4965 18.0643 16.7836 18.0643C17.0708 18.0643 17.3035 17.8347 17.3035 17.5515Z" fill="black"/>
<path d="M14.5584 17.5497L14.5307 12.8156C14.529 12.533 14.2949 12.3053 14.0078 12.3069C13.7206 12.3085 13.4892 12.5389 13.4909 12.8215L13.5186 17.5556C13.5203 17.8382 13.7544 18.0659 14.0415 18.0643C14.3286 18.0627 14.5601 17.8323 14.5584 17.5497Z" fill="black"/>
<path d="M10.718 12.8264L10.7458 17.5508C10.7474 17.8361 10.9816 18.066 11.2687 18.0643C11.5558 18.0626 11.7872 17.83 11.7856 17.5448L11.7578 12.8204C11.7562 12.5352 11.522 12.3053 11.2349 12.3069C10.9478 12.3086 10.7164 12.5412 10.718 12.8264Z" fill="black"/>
</g>
<defs>
<filter id="filter0_d_20005153_5022" x="0.2" y="0" width="22.6" height="23.8" filterUnits="userSpaceOnUse" color-interpolation-filters="sRGB">
<feFlood flood-opacity="0" result="BackgroundImageFix"/>
<feColorMatrix in="SourceAlpha" type="matrix" values="0 0 0 0 0 0 0 0 0 0 0 0 0 0 0 0 0 0 127 0" result="hardAlpha"/>
<feOffset dy="1"/>
<feGaussianBlur stdDeviation="0.4"/>
<feColorMatrix type="matrix" values="0 0 0 0 0 0 0 0 0 0 0 0 0 0 0 0 0 0 0.5 0"/>
<feBlend mode="normal" in2="BackgroundImageFix" result="effect1_dropShadow_20005153_5022"/>
<feBlend mode="normal" in="SourceGraphic" in2="effect1_dropShadow_20005153_5022" result="shape"/>
</filter>
<clipPath id="clip0_20005153_5022">
<rect width="21" height="22" fill="white" transform="translate(1)"/>
</clipPath>
</defs>
</svg>
