<svg width="84" height="44" viewBox="0 0 84 44" fill="none" xmlns="http://www.w3.org/2000/svg">
<mask id="path-1-inside-1_20005153_5017" fill="white">
<path fill-rule="evenodd" clip-rule="evenodd" d="M4 0C1.79086 0 0 1.79086 0 4V34C0 36.2091 1.79086 38 4 38H35L41 44L47 38H80C82.2091 38 84 36.2091 84 34V4C84 1.79086 82.2091 0 80 0H4Z"/>
</mask>
<path fill-rule="evenodd" clip-rule="evenodd" d="M4 0C1.79086 0 0 1.79086 0 4V34C0 36.2091 1.79086 38 4 38H35L41 44L47 38H80C82.2091 38 84 36.2091 84 34V4C84 1.79086 82.2091 0 80 0H4Z" fill="black" fill-opacity="0.9"/>
<path d="M35 38L35.7071 37.2929L35.4142 37H35V38ZM41 44L40.2929 44.7071L41 45.4142L41.7071 44.7071L41 44ZM47 38V37H46.5858L46.2929 37.2929L47 38ZM1 4C1 2.34315 2.34315 1 4 1V-1C1.23858 -1 -1 1.23858 -1 4H1ZM1 34V4H-1V34H1ZM4 37C2.34315 37 1 35.6569 1 34H-1C-1 36.7614 1.23858 39 4 39V37ZM35 37H4V39H35V37ZM41.7071 43.2929L35.7071 37.2929L34.2929 38.7071L40.2929 44.7071L41.7071 43.2929ZM46.2929 37.2929L40.2929 43.2929L41.7071 44.7071L47.7071 38.7071L46.2929 37.2929ZM80 37H47V39H80V37ZM83 34C83 35.6569 81.6569 37 80 37V39C82.7614 39 85 36.7614 85 34H83ZM83 4V34H85V4H83ZM80 1C81.6569 1 83 2.34315 83 4H85C85 1.23858 82.7614 -1 80 -1V1ZM4 1H80V-1H4V1Z" fill="white" fill-opacity="0.15" mask="url(#path-1-inside-1_20005153_5017)"/>
<path d="M17.1402 24V13.92H21.0322C21.1302 13.92 21.2398 13.9247 21.3612 13.934C21.4872 13.9387 21.6132 13.9527 21.7392 13.976C22.2665 14.0553 22.7122 14.2397 23.0762 14.529C23.4448 14.8137 23.7225 15.173 23.9092 15.607C24.1005 16.041 24.1962 16.5217 24.1962 17.049C24.1962 17.8097 23.9955 18.47 23.5942 19.03C23.1928 19.59 22.6188 19.9423 21.8722 20.087L21.5152 20.171H18.1692V24H17.1402ZM23.2442 24L21.2562 19.898L22.2432 19.52L24.4272 24H23.2442ZM18.1692 19.191H21.0042C21.0882 19.191 21.1862 19.1863 21.2982 19.177C21.4102 19.1677 21.5198 19.1513 21.6272 19.128C21.9725 19.0533 22.2548 18.911 22.4742 18.701C22.6982 18.491 22.8638 18.2413 22.9712 17.952C23.0832 17.6627 23.1392 17.3617 23.1392 17.049C23.1392 16.7363 23.0832 16.4353 22.9712 16.146C22.8638 15.852 22.6982 15.6 22.4742 15.39C22.2548 15.18 21.9725 15.0377 21.6272 14.963C21.5198 14.9397 21.4102 14.9257 21.2982 14.921C21.1862 14.9117 21.0882 14.907 21.0042 14.907H18.1692V19.191ZM29.1712 24.21C28.4339 24.21 27.7945 24.0467 27.2532 23.72C26.7165 23.3933 26.2989 22.9337 26.0002 22.341C25.7015 21.7483 25.5522 21.053 25.5522 20.255C25.5522 19.429 25.6992 18.715 25.9932 18.113C26.2872 17.511 26.7002 17.0467 27.2322 16.72C27.7689 16.3933 28.4012 16.23 29.1292 16.23C29.8759 16.23 30.5129 16.4027 31.0402 16.748C31.5675 17.0887 31.9665 17.5787 32.2372 18.218C32.5079 18.8573 32.6315 19.6203 32.6082 20.507H31.5582V20.143C31.5395 19.163 31.3272 18.4233 30.9212 17.924C30.5199 17.4247 29.9319 17.175 29.1572 17.175C28.3452 17.175 27.7222 17.4387 27.2882 17.966C26.8589 18.4933 26.6442 19.2447 26.6442 20.22C26.6442 21.172 26.8589 21.9117 27.2882 22.439C27.7222 22.9617 28.3359 23.223 29.1292 23.223C29.6705 23.223 30.1419 23.0993 30.5432 22.852C30.9492 22.6 31.2689 22.2383 31.5022 21.767L32.4612 22.138C32.1625 22.796 31.7215 23.307 31.1382 23.671C30.5595 24.0303 29.9039 24.21 29.1712 24.21ZM26.2802 20.507V19.646H32.0552V20.507H26.2802ZM42.9726 24L42.9796 19.037C42.9796 18.4537 42.8162 17.9963 42.4896 17.665C42.1676 17.329 41.7569 17.161 41.2576 17.161C40.9729 17.161 40.6952 17.2263 40.4246 17.357C40.1539 17.4877 39.9299 17.6977 39.7526 17.987C39.5799 18.2763 39.4936 18.6543 39.4936 19.121L38.8846 18.946C38.8706 18.4047 38.9756 17.931 39.1996 17.525C39.4282 17.119 39.7409 16.804 40.1376 16.58C40.5389 16.3513 40.9916 16.237 41.4956 16.237C42.2562 16.237 42.8652 16.4727 43.3226 16.944C43.7799 17.4107 44.0086 18.043 44.0086 18.841L44.0016 24H42.9726ZM33.9496 24V16.44H34.8736V18.302H34.9856V24H33.9496ZM38.4716 24L38.4786 19.107C38.4786 18.505 38.3176 18.0313 37.9956 17.686C37.6782 17.336 37.2582 17.161 36.7356 17.161C36.2129 17.161 35.7906 17.3407 35.4686 17.7C35.1466 18.0547 34.9856 18.5283 34.9856 19.121L34.3696 18.785C34.3696 18.2997 34.4839 17.8657 34.7126 17.483C34.9412 17.0957 35.2539 16.7923 35.6506 16.573C36.0472 16.349 36.4976 16.237 37.0016 16.237C37.4822 16.237 37.9092 16.3397 38.2826 16.545C38.6606 16.7503 38.9569 17.049 39.1716 17.441C39.3862 17.833 39.4936 18.309 39.4936 18.869L39.4866 24H38.4716ZM48.9397 24.21C48.1884 24.21 47.5467 24.0397 47.0147 23.699C46.4827 23.3583 46.0744 22.887 45.7897 22.285C45.5051 21.683 45.3627 20.9923 45.3627 20.213C45.3627 19.4197 45.5074 18.7243 45.7967 18.127C46.0861 17.5297 46.4967 17.0653 47.0287 16.734C47.5654 16.398 48.2024 16.23 48.9397 16.23C49.6957 16.23 50.3397 16.4003 50.8717 16.741C51.4084 17.077 51.8167 17.546 52.0967 18.148C52.3814 18.7453 52.5237 19.4337 52.5237 20.213C52.5237 21.0063 52.3814 21.704 52.0967 22.306C51.8121 22.9033 51.4014 23.37 50.8647 23.706C50.3281 24.042 49.6864 24.21 48.9397 24.21ZM48.9397 23.223C49.7797 23.223 50.4051 22.9453 50.8157 22.39C51.2264 21.83 51.4317 21.1043 51.4317 20.213C51.4317 19.2983 51.2241 18.5703 50.8087 18.029C50.3981 17.4877 49.7751 17.217 48.9397 17.217C48.3751 17.217 47.9084 17.3453 47.5397 17.602C47.1757 17.854 46.9027 18.2063 46.7207 18.659C46.5434 19.107 46.4547 19.625 46.4547 20.213C46.4547 21.123 46.6647 21.8533 47.0847 22.404C47.5047 22.95 48.1231 23.223 48.9397 23.223ZM55.8385 24L53.0945 16.44H54.1375L56.3705 22.656L58.5895 16.44H59.6465L56.9025 24H55.8385ZM63.8294 24.21C63.0921 24.21 62.4527 24.0467 61.9114 23.72C61.3747 23.3933 60.9571 22.9337 60.6584 22.341C60.3597 21.7483 60.2104 21.053 60.2104 20.255C60.2104 19.429 60.3574 18.715 60.6514 18.113C60.9454 17.511 61.3584 17.0467 61.8904 16.72C62.4271 16.3933 63.0594 16.23 63.7874 16.23C64.5341 16.23 65.1711 16.4027 65.6984 16.748C66.2257 17.0887 66.6247 17.5787 66.8954 18.218C67.1661 18.8573 67.2897 19.6203 67.2664 20.507H66.2164V20.143C66.1977 19.163 65.9854 18.4233 65.5794 17.924C65.1781 17.4247 64.5901 17.175 63.8154 17.175C63.0034 17.175 62.3804 17.4387 61.9464 17.966C61.5171 18.4933 61.3024 19.2447 61.3024 20.22C61.3024 21.172 61.5171 21.9117 61.9464 22.439C62.3804 22.9617 62.9941 23.223 63.7874 23.223C64.3287 23.223 64.8001 23.0993 65.2014 22.852C65.6074 22.6 65.9271 22.2383 66.1604 21.767L67.1194 22.138C66.8207 22.796 66.3797 23.307 65.7964 23.671C65.2177 24.0303 64.5621 24.21 63.8294 24.21ZM60.9384 20.507V19.646H66.7134V20.507H60.9384Z" fill="white"/>
</svg>
