<svg width="121" height="45" viewBox="0 0 121 45" fill="none" xmlns="http://www.w3.org/2000/svg">
<g filter="url(#filter0_d_20005153_3248)">
<path d="M36.9668 16.6515H39.7148V27.7944H36.9668V16.6515ZM40.8105 23.6029C40.8105 20.8429 42.5226 19.1887 45.0908 19.1887C47.659 19.1887 49.3711 20.8429 49.3711 23.6029C49.3711 26.3629 47.7189 28.0344 45.0908 28.0344C42.4627 28.0344 40.8105 26.4229 40.8105 23.6029ZM46.6488 23.6029C46.6488 22.0858 46.0582 21.1944 45.1165 21.1944C44.1748 21.1944 43.5927 22.0515 43.5927 23.6029C43.5927 25.1544 44.1748 26.0029 45.1165 26.0029C46.0582 26.0029 46.666 25.1544 46.666 23.6115L46.6488 23.6029ZM50.4669 28.3687H53.1207C53.2415 28.6547 53.4525 28.8934 53.7214 29.0481C53.9904 29.2029 54.3025 29.2653 54.6102 29.2258C55.6632 29.2258 56.211 28.6601 56.211 27.8201V26.2772H56.2196C55.9928 26.7577 55.6261 27.158 55.1678 27.4258C54.7093 27.6936 54.1807 27.8161 53.6514 27.7772C51.6397 27.7772 50.3042 26.2429 50.3042 23.6029C50.3042 20.9629 51.5798 19.3172 53.7285 19.3172C54.2713 19.2882 54.8098 19.4283 55.2697 19.7185C55.7297 20.0086 56.0885 20.4344 56.2966 20.9372H56.2196V19.3858H58.9419V27.7344C58.9419 29.7487 57.1613 31.0087 54.5417 31.0087C52.1619 31.0001 50.6381 29.9115 50.484 28.3772L50.4669 28.3687ZM56.2196 23.6029C56.2196 22.2572 55.6032 21.4087 54.6273 21.4087C53.6514 21.4087 53.0522 22.2658 53.0522 23.6029C53.0522 24.9401 53.6429 25.7287 54.6273 25.7287C55.6118 25.7287 56.2196 25.0001 56.2196 23.6029ZM60.0291 23.6029C60.0291 20.8429 61.7412 19.1887 64.3094 19.1887C66.8776 19.1887 68.5897 20.8429 68.5897 23.6029C68.5897 26.3629 66.9289 28.0344 64.3094 28.0344C61.6898 28.0344 60.0462 26.4229 60.0462 23.6029H60.0291ZM65.8674 23.6029C65.8674 22.0858 65.2682 21.1944 64.3351 21.1944C63.402 21.1944 62.8113 22.0515 62.8113 23.6029C62.8113 25.1544 63.3934 26.0029 64.3351 26.0029C65.2767 26.0029 65.8845 25.1544 65.8845 23.6115L65.8674 23.6029ZM69.7026 17.3544C69.6906 17.0741 69.7626 16.7966 69.9095 16.5577C70.0563 16.3188 70.2712 16.1293 70.5264 16.0137C70.7817 15.898 71.0657 15.8615 71.3418 15.9088C71.618 15.956 71.8737 16.0849 72.0761 16.2789C72.2784 16.473 72.4182 16.7231 72.4775 16.9973C72.5366 17.2715 72.5126 17.5572 72.4083 17.8175C72.304 18.0779 72.1244 18.3011 71.8924 18.4584C71.6604 18.6157 71.3867 18.6998 71.1065 18.7001C70.9275 18.7046 70.7493 18.6735 70.5823 18.6086C70.4154 18.5437 70.2629 18.4461 70.1339 18.3217C70.0049 18.1974 69.9019 18.0486 69.8308 17.8839C69.7597 17.7193 69.7219 17.5423 69.7197 17.3629L69.7026 17.3544ZM69.7026 19.3772H72.4848V27.8287H69.7454L69.7026 19.3772ZM82.4921 23.6029C82.4921 26.3544 81.2594 27.9487 79.162 27.9487C78.6251 27.9818 78.0909 27.8491 77.6316 27.5687C77.1724 27.2881 76.8102 26.8733 76.5938 26.3801H76.5425V30.5458H73.7945V19.4029H76.5254V20.9115H76.5767C76.7856 20.4086 77.1443 19.9824 77.6038 19.6909C78.0634 19.3995 78.6016 19.2571 79.1449 19.2829C81.3022 19.2658 82.5435 20.8515 82.5435 23.6115L82.4921 23.6029ZM79.6928 23.6029C79.6928 22.2658 79.0679 21.4001 78.1005 21.4001C77.1332 21.4001 76.5254 22.2572 76.5168 23.6029C76.5082 24.9487 77.1332 25.7972 78.1005 25.7972C79.0679 25.7972 79.7442 25.0001 79.7442 23.6115L79.6928 23.6029ZM87.1833 19.1801C89.4861 19.1801 90.9157 20.2687 90.9329 22.0172H88.4246C88.4246 21.4087 87.9195 21.0315 87.1662 21.0315C86.4129 21.0315 86.0533 21.3229 86.0533 21.7601C86.0533 22.1972 86.3701 22.3344 87.0035 22.4629L88.767 22.8229C90.4791 23.1829 91.164 23.8687 91.164 25.1458C91.164 26.8601 89.5803 28.0258 87.2261 28.0258C84.872 28.0258 83.3396 26.8944 83.2283 25.1715H85.8907C85.9677 25.7972 86.4642 26.1658 87.2689 26.1658C88.0736 26.1658 88.4503 25.9087 88.4503 25.4544C88.4503 25.0001 88.1935 24.9229 87.5343 24.7858L85.942 24.4515C84.2898 24.1001 83.4252 23.2344 83.4252 21.9401C83.4766 20.2601 84.9148 19.1887 87.2347 19.1887L87.1833 19.1801ZM100.367 27.8201H97.7043V26.2344H97.6529C97.504 26.7633 97.1795 27.2256 96.7327 27.5449C96.2858 27.8644 95.7439 28.0219 95.196 27.9915C94.7826 28.005 94.3699 27.9307 93.9873 27.7735C93.6046 27.6164 93.2588 27.3799 92.9737 27.0797C92.6878 26.7793 92.4695 26.422 92.3317 26.0311C92.1938 25.6403 92.1399 25.2246 92.1742 24.8115V19.3858H94.9221V24.2201C94.9221 25.2144 95.4443 25.7544 96.3004 25.7544C96.5015 25.7528 96.6993 25.7082 96.8816 25.6235C97.064 25.5387 97.2258 25.4158 97.3559 25.2631C97.4869 25.1103 97.5836 24.9313 97.6392 24.7381C97.694 24.5448 97.7077 24.3419 97.6786 24.1429V19.3858H100.418L100.367 27.8201ZM101.694 19.3772H104.364V21.0058H104.424C104.572 20.4841 104.888 20.0261 105.323 19.7035C105.759 19.3809 106.289 19.2119 106.83 19.2229C107.374 19.1756 107.915 19.333 108.349 19.6643C108.783 19.9956 109.077 20.477 109.176 21.0144H109.295C109.467 20.4741 109.811 20.0056 110.276 19.6817C110.74 19.3577 111.299 19.1965 111.864 19.2229C112.239 19.2086 112.614 19.2739 112.963 19.4146C113.312 19.5552 113.627 19.768 113.888 20.0391C114.149 20.3101 114.35 20.6334 114.477 20.9875C114.605 21.3417 114.657 21.7189 114.629 22.0944V27.8287H111.864V22.7972C111.864 21.9401 111.461 21.4601 110.682 21.4601C110.509 21.4573 110.338 21.4919 110.18 21.5615C110.021 21.6312 109.881 21.7343 109.766 21.8637C109.651 21.9932 109.566 22.1459 109.515 22.3115C109.466 22.4771 109.452 22.6515 109.475 22.8229V27.8287H106.856V22.7715C106.856 21.9144 106.436 21.4601 105.683 21.4601C105.508 21.4587 105.335 21.4947 105.176 21.5657C105.016 21.6367 104.874 21.7411 104.757 21.8718C104.642 22.0025 104.555 22.1565 104.504 22.3235C104.452 22.4905 104.436 22.6667 104.459 22.8401V27.8287H101.711L101.694 19.3772Z" fill="#B4B7C9"/>
<path d="M31.5308 17.3801C31.5309 15.6741 31.0164 14.0079 30.0547 12.5997C29.093 11.1914 27.7289 10.1069 26.1412 9.488C24.5534 8.86913 22.816 8.74485 21.1565 9.13141C19.4969 9.51797 17.9928 10.3974 16.8408 11.6544H6.15723V34.2315H28.7144V23.6801C29.5997 22.8873 30.3082 21.9164 30.7935 20.8308C31.2788 19.7452 31.5301 18.5695 31.5308 17.3801ZM27.1906 17.3801C27.1923 18.1976 26.9518 18.9972 26.4994 19.6778C26.047 20.3583 25.4033 20.8892 24.6494 21.2031C23.8956 21.5172 23.0657 21.6003 22.2647 21.4418C21.4637 21.2834 20.7277 20.8905 20.1498 20.3131C19.5719 19.7356 19.1781 18.9995 19.0182 18.1978C18.8582 17.3962 18.9395 16.5651 19.2515 15.8097C19.5635 15.0542 20.0924 14.4085 20.7711 13.9541C21.4499 13.4998 22.248 13.2573 23.0644 13.2573C24.1573 13.2573 25.2055 13.6914 25.979 14.4643C26.7527 15.2372 27.1884 16.2859 27.1906 17.3801ZM24.3742 29.8858H10.4975V16.0001H14.7264C14.6447 16.4557 14.6017 16.9173 14.598 17.3801C14.6003 19.6277 15.493 21.7826 17.0803 23.3719C18.6675 24.9611 20.8196 25.855 23.0644 25.8573C23.5033 25.8549 23.9413 25.8177 24.3742 25.7458V29.8858Z" fill="#B4B7C9"/>
</g>
<defs>
<filter id="filter0_d_20005153_3248" x="0" y="0" width="121" height="52" filterUnits="userSpaceOnUse" color-interpolation-filters="sRGB">
<feFlood flood-opacity="0" result="BackgroundImageFix"/>
<feColorMatrix in="SourceAlpha" type="matrix" values="0 0 0 0 0 0 0 0 0 0 0 0 0 0 0 0 0 0 127 0" result="hardAlpha"/>
<feOffset dy="4"/>
<feGaussianBlur stdDeviation="2"/>
<feComposite in2="hardAlpha" operator="out"/>
<feColorMatrix type="matrix" values="0 0 0 0 0 0 0 0 0 0 0 0 0 0 0 0 0 0 0.25 0"/>
<feBlend mode="normal" in2="BackgroundImageFix" result="effect1_dropShadow_20005153_3248"/>
<feBlend mode="normal" in="SourceGraphic" in2="effect1_dropShadow_20005153_3248" result="shape"/>
</filter>
</defs>
</svg>
